<svg width="163" height="163" viewBox="0 0 163 163" fill="none" xmlns="http://www.w3.org/2000/svg">
<path fill-rule="evenodd" clip-rule="evenodd" d="M92.9232 27.7002L81.5 0L70.0768 27.7002C73.7619 26.9216 77.5831 26.512 81.5 26.512C85.4169 26.512 89.2381 26.9216 92.9232 27.7002ZM111.459 35.3826C117.907 39.5799 123.42 45.0928 127.617 51.5406L139.129 23.8708L111.459 35.3826ZM135.3 70.0768C136.078 73.7619 136.488 77.5831 136.488 81.5C136.488 85.4169 136.078 89.2381 135.3 92.9232L163 81.5L135.3 70.0768ZM127.617 111.459C123.42 117.907 117.907 123.42 111.459 127.617L139.129 139.129L127.617 111.459ZM92.9232 135.3C89.2381 136.078 85.4169 136.488 81.5 136.488C77.5831 136.488 73.7619 136.078 70.0768 135.3L81.5 163L92.9232 135.3ZM51.5406 127.617C45.0928 123.42 39.5799 117.907 35.3826 111.459L23.8708 139.129L51.5406 127.617ZM27.7002 92.9232C26.9216 89.2381 26.512 85.4169 26.512 81.5C26.512 77.5831 26.9216 73.7619 27.7002 70.0768L0 81.5L27.7002 92.9232ZM35.3826 51.5406C39.5799 45.0928 45.0928 39.5799 51.5406 35.3826L23.8708 23.8708L35.3826 51.5406Z" fill="#FFFCFC"/>
<circle cx="81.5" cy="81.5" r="42.2229" fill="#FFFCFC"/>
</svg>
